<?xml version="1.0" encoding="UTF-8"?><svg xmlns="http://www.w3.org/2000/svg" viewBox="0 0 1852.84 670.94"><defs><style>.d{fill:#a3a3a3;}</style></defs><g id="a"/><g id="b"><g id="c"><g><g><path class="d" d="M396.46,0c2.78,147.35-169.48,127.35-317.77,194.25C-31.8,244.09,6.37,373.44,6.37,373.44c.59-146.51,137.16-70.15,314.43-135.85C498.08,171.88,396.46,0,396.46,0h0Z"/><path class="d" d="M207.56,323.95c-81.21-.92-169.84-10.04-178.66,76.09-13.14,128.42,115.59,270.9,115.59,270.9,0,0-119.62-219.71-50.1-275.66,27.05-21.77,119.27,2.51,165.5,1.27,99.32-2.67,99.32-117.87,99.32-117.87,0,0-29.43,46.66-151.65,45.27h0Z"/></g><g><g><path class="d" d="M527.71,449.92c0-30.95,0-36.5-.4-42.85-.4-6.75-1.98-9.92-8.53-11.31-1.59-.4-4.96-.6-6.74-.6-.79,0-1.59-.4-1.59-1.19,0-1.19,.99-1.59,3.17-1.59,8.93,0,21.43,.59,22.42,.59,2.18,0,17.26-.59,23.41-.59,12.5,0,25.79,1.19,36.3,8.73,4.96,3.57,13.69,13.29,13.69,26.98,0,14.68-6.15,29.36-24,45.83,16.27,20.83,29.76,38.49,41.26,50.79,10.71,11.31,19.24,13.49,24.2,14.28,3.77,.59,6.55,.59,7.74,.59,.99,0,1.79,.6,1.79,1.19,0,1.19-1.19,1.59-4.76,1.59h-14.08c-11.11,0-16.07-.99-21.23-3.77-8.53-4.56-15.47-14.28-26.78-29.16-8.33-10.91-17.66-24.2-21.62-29.36-.79-.79-1.39-1.19-2.58-1.19l-24.4-.4c-.99,0-1.39,.6-1.39,1.59v4.76c0,19.04,0,34.72,.99,43.05,.6,5.75,1.79,10.12,7.74,10.91,2.78,.4,7.14,.79,8.93,.79,1.19,0,1.59,.6,1.59,1.19,0,.99-.99,1.59-3.17,1.59-10.91,0-23.41-.59-24.4-.59-.2,0-12.7,.59-18.65,.59-2.18,0-3.17-.4-3.17-1.59,0-.59,.4-1.19,1.59-1.19,1.79,0,4.17-.4,5.95-.79,3.97-.79,4.96-5.16,5.75-10.91,.99-8.33,.99-24,.99-43.05v-34.92Zm15.87,17.26c0,.99,.4,1.79,1.39,2.38,2.98,1.79,12.1,3.17,20.83,3.17,4.76,0,10.32-.59,14.88-3.77,6.94-4.76,12.1-15.47,12.1-30.55,0-24.8-13.09-39.68-34.32-39.68-5.95,0-11.31,.59-13.29,1.19-.99,.4-1.59,1.19-1.59,2.38v64.87Z"/><path class="d" d="M663.6,463.61c0-25.99,0-30.75-.4-36.11-.4-5.55-1.79-8.33-7.54-9.52-1.19-.2-3.17-.4-4.76-.4-1.39,0-2.58-.59-2.58-1.19,0-1.19,.99-1.59,2.98-1.59,3.97,0,9.32,.4,20.43,.59,.99,0,36.3,0,40.27-.2,3.97-.2,6.15-.4,7.74-.99,1.19-.4,1.39-.6,2.18-.6,.4,0,.79,.4,.79,1.39,0,1.19-1.19,3.97-1.59,8.93-.2,3.37-.4,6.55-.6,10.32,0,1.79-.4,2.98-1.39,2.98s-1.39-.79-1.39-2.18c-.2-2.98-.79-4.96-1.39-6.35-1.19-3.97-2.98-5.36-12.89-5.95-2.58-.2-22.22-.4-22.62-.4-.6,0-.99,.4-.99,1.59v45.03c0,1.19,.2,1.98,1.19,1.98,2.38,0,22.62-.2,26.78-.6,4.56-.2,7.54-.79,9.13-2.98,.79-1.19,1.39-1.59,2.18-1.59,.4,0,.79,.2,.79,1.19s-.79,4.76-1.39,10.51c-.59,5.55-.59,9.52-.79,12.1-.2,1.59-.59,2.18-1.39,2.18-.99,0-1.19-1.19-1.19-2.58,0-1.19-.2-3.17-.6-4.76-.79-2.58-1.98-5.36-9.52-5.95-4.56-.4-20.63-.79-23.81-.79-1.19,0-1.39,.59-1.39,1.39v14.48c0,6.15-.2,23.61,0,26.98,.4,7.34,1.39,11.11,5.55,12.89,2.98,1.39,7.74,1.79,14.48,1.79,3.77,0,10.12,.2,15.08-1.19,5.95-1.79,7.34-5.75,8.93-13.09,.4-1.98,.99-2.78,1.79-2.78,1.19,0,1.19,1.79,1.19,2.98,0,1.39-1.59,13.89-2.18,17.26-.79,3.97-2.18,4.36-8.73,4.36-13.09,0-18.65-.4-25.59-.4-6.94-.2-16.07-.59-23.41-.59-4.56,0-8.33,.59-13.09,.59-1.79,0-2.78-.4-2.78-1.39,0-.79,.79-1.39,1.79-1.39,1.19,0,2.58-.2,3.97-.59,3.57-.79,5.95-3.37,6.35-15.67,.2-6.75,.4-14.88,.4-29.96v-29.76Z"/><path class="d" d="M762.39,463.61c0-26.19,0-30.95-.4-36.3s-1.59-8.33-5.75-9.13c-1.98-.4-3.37-.4-4.56-.59-1.39-.2-2.18-.59-2.18-1.39,0-.99,.79-1.39,2.98-1.39,6.15,0,17.46,.59,18.05,.59,.79,0,12.3-.59,17.85-.59,1.98,0,2.98,.4,2.98,1.39,0,.79-.6,1.19-2.18,1.39-1.19,.2-2.18,.2-3.57,.4-5.75,.79-6.35,3.77-6.75,9.52-.4,5.36-.2,9.92-.2,36.11v29.76c0,15.28-.2,29.16,.79,36.3,.79,5.75,1.59,7.94,6.74,9.13,2.58,.59,6.75,.79,7.54,.79,1.79,.2,2.18,.6,2.18,1.39s-.79,1.39-2.78,1.39c-10.12,0-21.62-.59-22.62-.59-.6,0-12.3,.59-17.85,.59-1.79,0-3.17-.4-3.17-1.39,0-.79,.79-1.39,2.58-1.39,.99,0,3.17-.2,4.76-.59,3.37-.79,3.97-4.76,4.56-9.52,.99-7.14,.99-21.23,.99-36.1v-29.76Z"/><path class="d" d="M830.23,420.56c0-6.15,.6-8.13,2.18-8.13,1.39,0,4.76,3.97,6.15,5.36,1.79,1.98,29.36,30.15,57.13,58.52,15.47,15.08,35.31,35.51,40.47,40.27l-2.18-82.53c-.2-10.71-1.39-14.28-6.74-15.67-3.37-.6-6.35-.79-7.74-.79-1.98,0-2.38-.79-2.38-1.59,0-.99,1.59-1.19,3.57-1.19,8.53,0,16.86,.59,18.65,.59,1.98,0,8.13-.59,15.87-.59,2.18,0,2.78,.2,2.78,1.19,0,.79-.6,1.39-1.79,1.59s-2.78,.2-4.96,.59c-4.56,.99-5.95,2.98-5.95,14.88l-.4,99.59c0,9.92-.4,10.91-1.79,10.91s-3.37-1.39-13.09-10.51c-.79-.4-28.37-27.77-45.63-44.64-20.63-21.42-40.47-42.06-45.43-47.21l2.58,77.57c.4,13.69,1.59,18.85,6.55,20.04,3.17,.79,6.55,.79,8.13,.79s2.38,.6,2.38,1.39c0,.99-.99,1.39-3.17,1.39-10.71,0-17.85-.59-19.24-.59s-8.73,.59-17.26,.59c-1.79,0-2.98-.2-2.98-1.39,0-.79,.79-1.39,2.78-1.39,1.39,0,3.57,0,6.15-.79,4.36-1.39,5.36-6.75,5.36-21.23,0-94.63,.2-64.08,0-97.01Z"/><path class="d" d="M1006.19,493.96c-.99,0-1.59,.6-1.98,1.59l-8.73,24.8c-1.98,5.55-3.37,10.91-3.37,14.08,0,3.57,2.18,5.16,6.55,5.16h1.39c1.79,0,2.38,.6,2.38,1.39,0,.99-1.59,1.39-2.98,1.39-4.36,0-13.49-.59-15.67-.59-1.98,0-10.71,.59-19.04,.59-2.18,0-3.17-.4-3.17-1.39,0-.79,.79-1.39,2.38-1.39,.99,0,2.78,0,3.97-.2,8.53-.79,11.9-7.34,15.28-15.67l39.68-104.55c2.18-5.75,2.78-6.75,4.17-6.75,.99,0,1.79,.79,3.97,6.35,2.78,6.55,29.76,75.78,40.27,100.58,6.55,15.67,12.3,18.25,15.08,19.24,2.58,.99,5.36,.99,6.75,.99s2.38,.4,2.38,1.39-.79,1.39-2.98,1.39c-1.98,0-16.86,0-30.15-.4-3.77-.2-4.96-.4-4.96-1.39,0-.59,.6-1.19,1.39-1.39,.79-.4,1.98-1.39,.79-4.36l-15.67-39.87c-.4-.6-.79-.99-1.59-.99h-36.11Zm33.72-6.94c.79,0,.79-.59,.59-1.19l-15.67-43.84c-.99-2.78-1.19-2.78-2.18,0l-14.88,43.84c-.4,.79,0,1.19,.4,1.19h31.74Z"/><path class="d" d="M1173.03,483.84c0-71.62,.4-45.83,.2-84.31,0-7.74,.59-9.92,2.18-9.92s4.96,4.36,6.94,6.35c2.98,3.37,32.53,35.31,63.08,68.04,19.64,21.03,41.26,45.23,47.61,51.78l-2.18-100.78c-.2-12.89-1.59-17.26-7.74-18.85-3.57-.79-6.74-.99-8.53-.99-2.18,0-2.78-.59-2.78-1.39,0-1.19,1.59-1.39,3.97-1.39,8.93,0,18.45,.59,20.63,.59s8.73-.59,16.86-.59c2.18,0,3.57,.2,3.57,1.39,0,.79-.79,1.19-2.18,1.39-1.59,.2-2.78,.4-5.16,.79-5.55,1.19-6.94,4.17-6.94,17.85l-.4,115.85c0,13.09-.4,14.08-1.79,14.08-1.59,0-3.97-2.18-14.48-12.7-2.18-1.98-30.75-31.15-51.78-53.76-23.01-24.8-45.43-49.79-51.78-56.93l2.58,95.02c.4,16.27,2.38,21.42,7.74,23.01,3.77,.99,8.13,1.19,9.92,1.19,.99,0,1.59,.4,1.59,1.19,0,1.19-1.19,1.59-3.57,1.59-11.31,0-19.24-.59-21.03-.59s-10.12,.59-19.04,.59c-1.98,0-3.17-.2-3.17-1.59,0-.79,.6-1.19,1.59-1.19,1.59,0,5.16-.2,8.13-1.19,4.96-1.39,5.95-7.14,5.95-25.19v-29.36Z"/><path class="d" d="M1358.31,463.61c0-26.19,0-30.95-.4-36.3-.4-5.36-1.59-8.33-5.75-9.13-1.98-.4-3.37-.4-4.56-.59-1.39-.2-2.18-.59-2.18-1.39,0-.99,.79-1.39,2.98-1.39,6.15,0,17.46,.59,18.05,.59,.79,0,12.3-.59,17.85-.59,1.98,0,2.98,.4,2.98,1.39,0,.79-.59,1.19-2.18,1.39-1.19,.2-2.18,.2-3.57,.4-5.75,.79-6.35,3.77-6.75,9.52-.4,5.36-.2,9.92-.2,36.11v29.76c0,15.28-.2,29.16,.79,36.3,.79,5.75,1.59,7.94,6.75,9.13,2.58,.59,6.74,.79,7.54,.79,1.79,.2,2.18,.6,2.18,1.39s-.79,1.39-2.78,1.39c-10.12,0-21.62-.59-22.62-.59-.6,0-12.3,.59-17.85,.59-1.79,0-3.17-.4-3.17-1.39,0-.79,.79-1.39,2.58-1.39,.99,0,3.17-.2,4.76-.59,3.37-.79,3.97-4.76,4.56-9.52,.99-7.14,.99-21.23,.99-36.1v-29.76Z"/><path class="d" d="M1447.78,493.76c0,22.81,.79,34.32,4.17,37.49,3.17,2.78,7.14,3.97,20.83,3.97,8.73,0,16.66,0,21.03-5.55,1.98-2.98,3.37-6.94,3.77-9.92,.2-1.59,.59-2.38,1.59-2.38,.79,0,1.19,.59,1.19,2.58s-1.19,13.29-2.38,17.85c-1.19,3.97-.99,4.96-10.51,4.96-13.49,0-28.37-.99-48.21-.99-6.55,0-10.51,.59-17.46,.59-1.98,0-3.17-.4-3.17-1.59,0-.59,.59-1.19,2.18-1.19s3.17,0,4.76-.4c3.37-.59,4.56-4.56,5.16-9.32,1.19-7.54,.79-21.23,.79-36.5v-29.76c0-26.19,0-30.55-.4-35.91-.4-5.55-1.19-9.12-7.94-9.92-1.19-.2-3.37-.2-4.96-.2-1.39,0-2.18-.59-2.18-1.39,0-.99,.99-1.39,2.98-1.39,8.33,0,20.23,.59,20.63,.59,2.78,0,14.88-.59,20.43-.59,1.98,0,2.58,.59,2.58,1.39s-.99,1.39-2.18,1.39c-1.39,0-3.37,.2-5.36,.4-5.55,.79-6.75,3.97-7.14,9.72-.4,5.36-.2,9.72-.2,35.91v30.15Z"/><path class="d" d="M1520.98,540.18c-2.58-1.19-2.58-1.98-2.58-6.75,0-9.12,.59-15.87,.79-18.65,.2-1.79,.59-2.78,1.59-2.78s1.39,.59,1.39,1.98c0,1.19,0,3.57,.59,5.95,2.58,12.89,14.28,17.85,25.79,17.85,16.47,0,24.4-11.31,24.4-21.23,0-11.31-5.16-18.25-19.64-29.96l-7.94-6.15c-19.04-15.28-23.01-25.79-23.01-37.49,0-18.25,14.48-30.55,36.7-30.55,6.94,0,11.7,.6,16.07,1.59,3.77,.79,5.36,.99,6.75,.99s1.79,.4,1.79,1.19-.79,7.74-.79,19.24c0,2.98-.4,4.17-1.39,4.17s-1.19-.79-1.39-2.18c-.2-1.79-.6-5.95-2.38-9.32-.99-1.79-5.55-9.32-22.22-9.32-11.9,0-20.83,7.14-20.83,19.04,0,9.32,4.76,15.08,21.23,27.58l4.56,3.57c20.63,15.87,25.99,26.38,25.99,40.47,0,7.14-2.98,19.84-15.08,28.17-7.74,4.96-17.26,6.94-26.78,6.94-8.33,0-16.07-.99-23.61-4.36Z"/><path class="d" d="M1622.35,463.61c0-25.99,0-30.75-.4-36.11-.4-5.55-1.79-8.33-7.54-9.52-1.19-.2-3.17-.4-4.76-.4-1.39,0-2.58-.59-2.58-1.19,0-1.19,.99-1.59,2.98-1.59,3.97,0,9.32,.4,20.43,.59,.99,0,36.3,0,40.27-.2s6.15-.4,7.74-.99c1.19-.4,1.39-.6,2.18-.6,.4,0,.79,.4,.79,1.39,0,1.19-1.19,3.97-1.59,8.93-.2,3.37-.4,6.55-.6,10.32,0,1.79-.4,2.98-1.39,2.98s-1.39-.79-1.39-2.18c-.2-2.98-.79-4.96-1.39-6.35-1.19-3.97-2.98-5.36-12.89-5.95-2.58-.2-22.22-.4-22.62-.4-.59,0-.99,.4-.99,1.59v45.03c0,1.19,.2,1.98,1.19,1.98,2.38,0,22.62-.2,26.78-.6,4.56-.2,7.54-.79,9.13-2.98,.79-1.19,1.39-1.59,2.18-1.59,.4,0,.79,.2,.79,1.19s-.79,4.76-1.39,10.51c-.6,5.55-.6,9.52-.79,12.1-.2,1.59-.59,2.18-1.39,2.18-.99,0-1.19-1.19-1.19-2.58,0-1.19-.2-3.17-.59-4.76-.79-2.58-1.98-5.36-9.52-5.95-4.56-.4-20.63-.79-23.81-.79-1.19,0-1.39,.59-1.39,1.39v14.48c0,6.15-.2,23.61,0,26.98,.4,7.34,1.39,11.11,5.55,12.89,2.98,1.39,7.74,1.79,14.48,1.79,3.77,0,10.12,.2,15.08-1.19,5.95-1.79,7.34-5.75,8.93-13.09,.4-1.98,.99-2.78,1.79-2.78,1.19,0,1.19,1.79,1.19,2.98,0,1.39-1.59,13.89-2.18,17.26-.79,3.97-2.18,4.36-8.73,4.36-13.09,0-18.65-.4-25.59-.4-6.94-.2-16.07-.59-23.41-.59-4.56,0-8.33,.59-13.09,.59-1.79,0-2.78-.4-2.78-1.39,0-.79,.79-1.39,1.79-1.39,1.19,0,2.58-.2,3.97-.59,3.57-.79,5.95-3.37,6.35-15.67,.2-6.75,.4-14.88,.4-29.96v-29.76Z"/><path class="d" d="M1719.94,420.56c0-6.15,.59-8.13,2.18-8.13,1.39,0,4.76,3.97,6.15,5.36,1.79,1.98,29.36,30.15,57.13,58.52,15.47,15.08,35.31,35.51,40.47,40.27l-2.18-82.53c-.2-10.71-1.39-14.28-6.75-15.67-3.37-.6-6.35-.79-7.74-.79-1.98,0-2.38-.79-2.38-1.59,0-.99,1.59-1.19,3.57-1.19,8.53,0,16.86,.59,18.65,.59,1.98,0,8.13-.59,15.87-.59,2.18,0,2.78,.2,2.78,1.19,0,.79-.6,1.39-1.79,1.59s-2.78,.2-4.96,.59c-4.56,.99-5.95,2.98-5.95,14.88l-.4,99.59c0,9.92-.4,10.91-1.79,10.91s-3.37-1.39-13.09-10.51c-.79-.4-28.37-27.77-45.63-44.64-20.63-21.42-40.47-42.06-45.43-47.21l2.58,77.57c.4,13.69,1.59,18.85,6.55,20.04,3.17,.79,6.55,.79,8.13,.79s2.38,.6,2.38,1.39c0,.99-.99,1.39-3.17,1.39-10.71,0-17.85-.59-19.24-.59s-8.73,.59-17.26,.59c-1.79,0-2.98-.2-2.98-1.39,0-.79,.79-1.39,2.78-1.39,1.39,0,3.57,0,6.15-.79,4.36-1.39,5.36-6.75,5.36-21.23,0-94.63,.2-64.08,0-97.01Z"/></g><g><path class="d" d="M531.29,208.71c0-31.36,0-37.13-.41-43.74-.41-7.01-2.06-10.32-8.87-11.76-1.65-.41-5.16-.62-8.05-.62-2.06,0-3.51-.41-3.51-1.65,0-1.65,1.65-2.06,4.74-2.06,9.49,0,18.98,.62,29.71,.62,7.84,0,49.72,0,54.46-.21,3.92-.21,6.4-.21,8.46-.83,1.24-.41,2.27-1.24,3.3-1.24,.83,0,1.44,.83,1.44,1.86,0,1.44-1.03,3.92-1.65,9.28-.21,2.06-.62,14.23-1.03,16.71-.21,1.65-.62,2.89-2.06,2.89s-1.86-1.03-2.06-3.3c0-1.65,0-4.95-1.24-7.84-1.44-2.89-5.78-5.98-13.62-6.19-7.22-.21-25.58-.41-31.77-.62-1.24,0-1.86,.62-1.86,2.89v51.58c0,1.24,.21,1.86,1.44,1.86,5.57,0,18.98-.21,26.41-.21,11.97,0,15.27,0,18.15-3.92,1.03-1.24,1.44-2.06,2.68-2.06,.83,0,1.24,.62,1.24,1.86s-1.03,6.4-1.65,12.79c-.41,4.13-.83,13.62-.83,15.06,0,1.86,0,3.92-2.06,3.92-1.24,0-1.65-1.44-1.65-2.89s-.41-3.92-1.24-6.4c-1.03-2.89-4.13-6.6-10.52-7.43-5.16-.62-27.02-.62-30.53-.62-1.03,0-1.44,.41-1.44,1.86v16.71c0,19.8,0,35.28,1.03,43.94,.62,5.98,1.86,10.52,8.05,11.35,2.89,.41,7.43,.83,10.31,.83,2.68,0,3.51,.62,3.51,1.65,0,1.44-1.44,2.06-4.54,2.06-13,0-25.99-.62-31.36-.62s-18.36,.62-26.2,.62c-2.89,0-4.33-.41-4.33-2.06,0-1.03,.83-1.65,3.09-1.65,3.09,0,5.57-.41,7.43-.83,4.13-.83,5.16-5.36,5.98-11.35,1.03-8.66,1.03-24.14,1.03-43.94v-36.31Z"/><path class="d" d="M672.4,247.91c0,25.38,4.95,35.9,14.23,42.91,7.84,5.98,15.88,6.6,21.66,6.6,7.63,0,17.12-2.06,24.14-8.87,10.11-9.49,10.32-25.79,10.32-43.74v-21.87c0-26.41-.41-30.74-.62-36.31-.41-5.98-1.44-8.87-7.43-9.9-1.44-.41-4.13-.62-6.6-.83-2.06,0-3.09-.62-3.09-1.86s1.03-1.86,3.92-1.86c9.28,0,20.84,.62,21.46,.62,2.48,0,13.82-.62,21.25-.62,2.68,0,3.92,.62,3.92,1.86s-1.03,1.86-3.3,1.86c-2.06,.21-3.09,.21-5.36,.83-4.75,.83-5.98,3.51-6.4,9.7-.41,5.57-.62,10.11-.62,36.51v18.57c0,19.6-1.86,40.43-17.54,53.23-12.58,10.31-25.79,12.38-37.75,12.38-10.73,0-28.06-1.03-40.85-12.17-9.28-7.84-16.3-20.63-16.3-46.21v-25.79c0-26.82,0-30.94-.41-36.72-.41-5.57-1.65-8.25-7.22-9.49-1.65-.41-4.95-.62-7.43-.83-2.06,0-3.3-.83-3.3-2.06s1.44-1.65,4.33-1.65c9.28,0,21.87,.62,26.61,.62,3.92,0,17.33-.62,23.72-.62,2.89,0,4.13,.62,4.13,1.86s-1.24,1.86-3.09,1.86c-1.86,.21-3.3,.41-5.36,.83-4.95,.83-6.4,3.92-6.6,9.9-.41,5.57-.41,10.73-.41,36.31v24.96Z"/><path class="d" d="M812.68,175.7c0-3.92,.62-6.4,2.68-6.4,1.86,0,3.51,2.06,6.6,5.16,3.3,2.89,27.44,27.85,56.94,55.49,13.41,12.79,36.51,36.31,39.82,39.2l-1.65-76.33c-.21-10.52-1.65-14.03-6.6-15.89-2.68-.83-6.81-.83-9.28-1.03-2.27,0-3.09-1.03-3.09-2.06,0-1.44,2.06-1.65,4.54-1.65,9.08,0,18.36,.62,22.9,.62,2.27,0,9.7-.62,18.36-.62,2.27,0,3.92,.41,3.92,1.86,0,1.03-.83,1.86-3.09,1.86-1.86,.21-3.3,.21-5.16,.62-5.36,1.44-7.01,4.95-7.22,14.85-.83,26.41-1.24,72.41-1.86,109.13,0,4.75-1.03,6.4-2.68,6.4-2.27,0-4.95-2.27-8.87-5.78-11.55-10.52-33.63-31.77-50.75-48.27-18.15-16.92-38.37-38.37-43.32-43.53l1.86,71.59c.41,13.41,2.48,17.74,6.19,18.98,3.09,1.03,6.6,1.03,9.7,1.24,1.86,0,3.09,.62,3.09,1.65,0,1.44-1.65,2.06-4.13,2.06-10.73,0-17.95-.62-22.69-.62-2.27,0-11.76,.62-20.63,.62-2.27,0-3.92-.21-3.92-1.86,0-1.03,1.03-1.86,2.89-1.86,2.27-.21,5.36-.21,7.84-.83,5.16-1.44,5.98-5.98,6.19-21.25,.41-37.13,1.44-80.25,1.44-103.36Z"/><path class="d" d="M990.31,222.94c0-26.41,0-30.94-.41-36.51-.41-5.78-1.65-9.49-7.84-10.11l-7.01-.62c-2.06,0-3.09-.62-3.09-1.86s1.24-1.65,3.92-1.65c8.66,0,21.04,.62,26.61,.62,5.98,0,16.5-.62,28.47-.62,24.34,0,52.4,.83,71.79,20.22,9.08,8.87,17.54,23.52,17.54,44.56s-9.7,38.58-19.8,48.69c-8.46,8.25-26.2,20.63-60.24,20.63-13.2,0-29.5-2.06-38.37-2.06-4.95,0-16.09,.62-23.72,.62-2.47,0-3.51-.62-3.51-1.86,0-.83,1.03-1.86,3.09-1.86s4.13-.21,6.4-.62c7.01-1.24,6.19-18.98,6.19-46.62v-30.94Zm24.34,19.39c0,18.57,.21,31.56,.41,34.86,.21,4.95,.41,10.31,2.27,13.2,2.06,3.3,9.7,6.81,22.9,6.81,17.33,0,28.67-3.3,39.4-12.58,11.35-9.49,14.65-24.96,14.65-42.91,0-21.04-9.08-34.86-16.92-42.7-15.68-15.27-35.28-17.74-48.89-17.74-3.71,0-10.32,.62-11.55,1.65-1.86,1.44-2.27,1.86-2.27,37.75v21.66Z"/><path class="d" d="M1178.24,261.31c-.82,0-1.24,.41-1.65,1.44l-9.08,22.49c-1.65,4.33-2.68,8.66-2.68,10.73,0,5.16,6.4,5.36,10.32,5.36,2.48,0,3.09,.83,3.09,1.65,0,1.44-1.44,1.86-3.3,1.86-6.39,0-13.82-.62-20.22-.62-2.06,0-12.38,.62-21.87,.62-2.27,0-3.3-.41-3.3-1.86,0-1.03,1.03-1.86,2.47-1.86,13-1.24,15.89-3.71,20.63-15.68l43.73-103.36c3.71-9.7,5.78-13.62,8.05-13.62,1.65,0,2.68,1.86,4.75,6.4,3.51,10.11,34.04,80.46,45.59,106.86,6.6,15.47,11.76,18.15,16.09,18.98,1.86,.41,4.95,.41,6.81,.41,2.27,0,3.09,.83,3.09,1.86,0,1.24-.83,1.86-3.51,1.86-8.66,0-30.33,.41-43.32-.41-1.86-.21-3.09-.62-3.09-1.65,0-.83,.83-1.24,1.86-1.65,1.86-.62,3.3-1.24,2.06-3.71l-14.03-34.86c-.21-.83-.83-1.24-1.65-1.24h-40.85Zm36.93-10.31c1.03,0,1.03-.41,.83-1.03l-16.09-42.08c-.62-1.65-1.24-2.06-2.06,0l-16.3,42.08c-.21,.62,0,1.03,.83,1.03h32.8Z"/><path class="d" d="M1310.07,288.13c-17.95-15.06-22.69-34.45-22.69-51.78,0-11.96,3.92-32.8,21.46-48.27,13.62-11.76,31.15-18.36,57.97-18.36,11.14,0,18.15,.62,26.41,1.86,7.01,1.03,12.38,2.27,17.95,2.89,1.86,.21,2.68,1.03,2.68,2.06,0,1.44-.41,3.92-.83,10.11-.21,5.78-.21,15.88-.62,19.6-.21,2.68-.62,4.13-2.27,4.13-1.44,0-2.27-1.44-2.27-3.92-.21-5.16-1.86-11.35-6.81-16.3-5.98-6.4-19.8-10.93-36.51-10.93-15.06,0-25.17,3.51-33.01,10.31-12.58,11.35-16.5,27.64-16.5,44.97,0,40.64,30.33,61.68,56.32,61.68,16.09,0,25.17-1.65,32.18-9.49,3.09-3.3,5.16-8.25,5.98-11.96,.83-3.09,1.44-3.71,2.89-3.71,1.24,0,1.86,1.24,1.86,2.68,0,2.27-2.27,17.95-4.13,24.34-.83,3.09-1.65,3.92-4.74,5.16-7.22,2.89-20.84,3.92-32.39,3.92-24.76,0-46-4.75-62.92-18.98Z"/><path class="d" d="M1458.19,222.94c0-26.82,0-30.94-.41-36.72-.41-5.78-2.27-8.66-6.19-9.49-1.86-.41-4.13-.62-6.4-.83-1.86,0-2.89-.62-2.89-2.06,0-1.03,1.24-1.65,4.13-1.65,7.22,0,19.6,.62,24.14,.62,4.13,0,16.3-.62,23.31-.62,2.47,0,3.51,.62,3.51,1.65,0,1.44-1.03,2.06-2.89,2.06-1.86,.21-2.68,.21-4.75,.62-4.95,.83-6.39,3.92-6.81,9.9-.62,5.57-.62,9.7-.62,36.51v30.94c0,16.5,.21,29.91,1.03,37.34,.41,4.74,1.86,8.46,7.22,9.08,2.68,.62,5.16,.62,7.84,.83,2.27,0,3.09,1.03,3.09,1.86,0,1.24-1.44,1.86-3.51,1.86-12.17,0-23.93-.62-28.26-.62-3.51,0-15.88,.62-23.11,.62-2.48,0-3.71-.62-3.71-1.86,0-.83,.83-1.86,3.09-1.86,2.47-.21,3.92-.21,5.57-.62,3.51-.83,5.16-3.92,5.57-8.87,1.03-7.43,1.03-20.63,1.03-37.75v-30.94Z"/><path class="d" d="M1525.86,238.62c0-30.94,20.63-68.9,74.89-68.9,45.39,0,73.03,27.85,73.03,65.6,0,40.23-28.26,71.79-74.68,71.79-51.78,0-73.24-37.34-73.24-68.49Zm121.1,3.3c0-37.34-21.46-62.92-51.58-62.92-20.22,0-42.91,10.31-42.91,53.64,0,35.9,19.6,64.78,53.84,64.78,12.58,0,40.64-5.16,40.64-55.49Zm-16.5-103.97c1.03,2.27,.21,3.09-.83,3.09s-5.78,.83-9.28,2.27c-10.73,4.13-18.77,8.05-28.06,12.79-1.24,.83-2.68,1.44-3.51,1.44-.41,0-1.44-.21-1.44-1.24,0-.83,.83-1.65,1.65-2.89,6.19-7.22,19.6-20.22,24.76-23.93,2.68-2.06,4.74-3.09,5.57-3.09,1.03,0,2.27,.62,4.12,2.06,2.06,2.27,4.54,4.95,7.01,9.49Z"/><path class="d" d="M1717.71,175.7c0-3.92,.62-6.4,2.68-6.4,1.86,0,3.51,2.06,6.6,5.16,3.3,2.89,27.44,27.85,56.94,55.49,13.41,12.79,36.51,36.31,39.82,39.2l-1.65-76.33c-.21-10.52-1.65-14.03-6.6-15.89-2.68-.83-6.81-.83-9.28-1.03-2.27,0-3.09-1.03-3.09-2.06,0-1.44,2.06-1.65,4.54-1.65,9.08,0,18.36,.62,22.9,.62,2.27,0,9.7-.62,18.36-.62,2.27,0,3.92,.41,3.92,1.86,0,1.03-.83,1.86-3.09,1.86-1.86,.21-3.3,.21-5.16,.62-5.36,1.44-7.01,4.95-7.22,14.85-.83,26.41-1.24,72.41-1.86,109.13,0,4.75-1.03,6.4-2.68,6.4-2.27,0-4.95-2.27-8.87-5.78-11.55-10.52-33.63-31.77-50.75-48.27-18.15-16.92-38.37-38.37-43.32-43.53l1.86,71.59c.41,13.41,2.47,17.74,6.19,18.98,3.09,1.03,6.6,1.03,9.7,1.24,1.86,0,3.09,.62,3.09,1.65,0,1.44-1.65,2.06-4.13,2.06-10.73,0-17.95-.62-22.69-.62-2.27,0-11.76,.62-20.63,.62-2.27,0-3.92-.21-3.92-1.86,0-1.03,1.03-1.86,2.89-1.86,2.27-.21,5.36-.21,7.84-.83,5.16-1.44,5.98-5.98,6.19-21.25,.41-37.13,1.44-80.25,1.44-103.36Z"/></g></g></g></g></g></svg>