<?xml version="1.0" encoding="UTF-8"?><svg xmlns="http://www.w3.org/2000/svg" viewBox="0 0 509.79 136.98"><defs><style>.d{fill:none;stroke:#a3a3a3;stroke-miterlimit:10;stroke-width:6px;}.e,.f{fill:#a3a3a3;}.f{fill-rule:evenodd;}</style></defs><g id="a"/><g id="b"><g id="c"><g><g><path class="f" d="M103.38,136.98C50.39,93.19,0,52.02,0,52.02c0,0,13.04-19.73,34.32-33.43l69.06,118.38"/><path class="f" d="M98.57,120.92C69.95,72.97,37.42,17.29,37.42,17.29c0,0,18.92-12.07,37.1-15.16l24.05,118.79"/><path class="f" d="M99.39,107.05C90.58,63.27,79.25,1.55,79.25,1.55c0,0,15.33-2.94,32.29-.73l-12.15,106.24"/><path class="f" d="M104.93,93.6C111.05,45.01,115.45,1.23,115.45,1.23c0,0,15.33,1.47,25.36,7.09,0,0-12.8,30.33-35.87,85.28"/><path class="f" d="M112.6,85.86c21.36-49.49,32.37-76.23,32.37-76.23,0,0,9.46,2.61,19.08,10.76l-51.45,65.47"/><path class="f" d="M121.81,79.74c37.83-47.7,44.76-57.56,44.76-57.56,0,0,3.26,.57,12.39,10.6l-57.15,46.96h0Z"/><path class="f" d="M190.46,46.8l-60.66,31.23h0c45.66-36.77,52.18-41.66,52.18-41.66,0,0,5.71,5.38,8.48,10.44"/><path class="f" d="M196.74,57.08l-50.39,16.88h0c31.31-16.14,46.72-23.24,46.72-23.24"/><path class="f" d="M199.51,66.13l-43.62,8.07h0c43.13-13.21,41.91-13.29,41.91-13.29"/></g><g><g><path class="e" d="M227.54,95.27v12.73h14.01v6.24h-14.01v18.84h-8.79v-44.05h25.85l-.83,6.24h-16.23Z"/><path class="e" d="M257.4,102.01v19.04c0,3.88,1.46,6.05,4.14,6.05,2.48,0,4.84-1.08,7.45-3.31v-21.77h8.53v31.07h-8.53v-3.76c-4.07,2.93-6.49,4.39-10.57,4.39-5.92,0-9.55-3.5-9.55-9.74v-21.96h8.53Z"/><path class="e" d="M305.91,133.08v-19.03c0-3.88-1.4-6.11-4.14-6.11-2.55,0-4.84,1.08-7.51,3.25v21.9h-8.53v-31.07h8.53v3.63c4.14-2.86,6.56-4.33,10.63-4.33,5.92,0,9.55,4.27,9.55,10.44v21.33h-8.53Z"/><path class="e" d="M344.29,129.45c-1.46,1.78-4.33,4.27-9.29,4.27-8.4,0-14.2-6.17-14.2-16.42s6.3-15.98,14.45-15.98c3.44,0,6.75,.96,9.04,3.44v-17.38l8.59-.76v46.47h-7.83l-.76-3.63Zm0-18.52c-1.59-2.23-4.33-3.57-6.88-3.57-4.46,0-7.45,4.14-7.45,10.19s2.8,10.19,7.19,10.19c3.44,0,5.6-1.72,7.13-3.5v-13.3Z"/><path class="e" d="M389.42,132c-1.72,1.02-4.01,1.72-6.05,1.72-3.18,0-5.28-1.4-6.05-3.88-2.99,2.48-5.98,3.88-9.36,3.88-5.86,0-9.29-3.5-9.29-8.72s3.69-8.47,10.76-10.06l6.75-1.53v-.76c0-3.95-1.78-5.35-4.52-5.35s-5.48,1.27-8.72,3.25l-2.48-5.09c4.26-2.67,8.78-4.2,12.79-4.2,6.43,0,11.08,3.69,11.08,10.19v12.86c0,2.67,.51,3.88,1.91,3.88,.45,0,1.02-.19,1.85-.57l1.34,4.39Zm-13.24-13.75c-7.32,1.72-9.49,3.18-9.49,6.3,0,2.23,1.59,3.5,3.56,3.5,1.78,0,4.2-1.08,6.11-2.86-.13-1.85-.19-4.71-.19-6.94Z"/><path class="e" d="M420.36,129.52c-2.29,1.97-6.17,4.33-12.1,4.33-10.44,0-16.04-6.68-16.04-16.62s6.17-16.04,15.98-16.04c4.58,0,8.02,1.59,10.5,3.5l-3.25,5.03c-2.04-1.53-4.14-2.42-6.43-2.42-4.65,0-7.64,3.44-7.64,9.87s3.06,10.7,8.53,10.7c3.37,0,5.73-1.59,7.7-2.93l2.74,4.58Z"/><path class="e" d="M429.66,97.43c-2.61,0-4.71-2.1-4.71-4.71s2.1-4.65,4.71-4.65,4.65,2.04,4.65,4.65-2.04,4.71-4.65,4.71Zm-4.27,35.65v-31.07h8.53v31.07h-8.53Z"/><path class="e" d="M457.35,133.72c-11.08,0-16.81-7.45-16.81-16.17s5.73-16.23,16.87-16.23,16.68,6.94,16.68,16.23-5.79,16.17-16.74,16.17Zm0-26.36c-4.46,0-7.64,3.25-7.64,10.12s3.25,10.25,7.64,10.25,7.58-3.12,7.58-9.93c0-7.45-3.25-10.44-7.58-10.44Zm-4.27-10.25l6.37-11.59,7.19,2.99-7.64,8.59h-5.92Z"/><path class="e" d="M500.76,133.08v-19.03c0-3.88-1.4-6.11-4.14-6.11-2.55,0-4.84,1.08-7.51,3.25v21.9h-8.53v-31.07h8.53v3.63c4.14-2.86,6.56-4.33,10.63-4.33,5.92,0,9.55,4.27,9.55,10.44v21.33h-8.53Z"/></g><g><path class="e" d="M256.32,4.09V30.7c0,11.9-7.38,18.08-19.1,18.08s-18.46-6.49-18.46-18.72V4.09h8.85V29.11c0,9.29,3.56,13.05,10.31,13.05s10.06-3.82,10.06-13.18V4.09h8.34Z"/><path class="e" d="M284.84,48.14V29.11c0-3.88-1.4-6.11-4.14-6.11-2.55,0-4.84,1.08-7.51,3.25v21.9h-8.53V17.07h8.53v3.63c4.14-2.86,6.56-4.33,10.63-4.33,5.92,0,9.55,4.27,9.55,10.44v21.33h-8.53Z"/><path class="e" d="M305.65,12.49c-2.61,0-4.71-2.1-4.71-4.71s2.1-4.65,4.71-4.65,4.65,2.04,4.65,4.65-2.04,4.71-4.65,4.71Zm-4.27,35.65V17.07h8.53v31.07h-8.53Z"/><path class="e" d="M344.67,44.58c-2.29,1.97-6.17,4.33-12.09,4.33-10.44,0-16.04-6.68-16.04-16.62s6.17-16.04,15.98-16.04c4.58,0,8.02,1.59,10.5,3.5l-3.25,5.03c-2.04-1.53-4.14-2.42-6.43-2.42-4.65,0-7.64,3.44-7.64,9.87s3.06,10.7,8.53,10.7c3.37,0,5.73-1.59,7.7-2.93l2.74,4.58Z"/><path class="e" d="M378.03,47.06c-1.72,1.02-4.01,1.72-6.05,1.72-3.18,0-5.28-1.4-6.05-3.88-2.99,2.48-5.98,3.88-9.36,3.88-5.86,0-9.29-3.5-9.29-8.72s3.69-8.47,10.76-10.06l6.75-1.53v-.76c0-3.95-1.78-5.35-4.52-5.35s-5.47,1.27-8.72,3.25l-2.48-5.09c4.27-2.67,8.79-4.2,12.8-4.2,6.43,0,11.08,3.69,11.08,10.19v12.86c0,2.67,.51,3.88,1.91,3.88,.45,0,1.02-.19,1.85-.57l1.34,4.39Zm-13.24-13.75c-7.32,1.72-9.49,3.18-9.49,6.3,0,2.23,1.59,3.5,3.57,3.5,1.78,0,4.2-1.08,6.11-2.86-.13-1.85-.19-4.71-.19-6.94Z"/><path class="e" d="M391.21,48.78c0,10.57-5.09,13.88-12.03,16.55l-2.67-5.16c2.36-1.46,6.18-3.37,6.18-9.93V17.07h8.53v31.7Zm-4.27-36.29c-2.61,0-4.65-2.1-4.65-4.71s2.04-4.65,4.65-4.65,4.71,2.04,4.71,4.65-2.1,4.71-4.71,4.71Z"/><path class="e" d="M427.87,47.06c-1.72,1.02-4.01,1.72-6.05,1.72-3.18,0-5.28-1.4-6.05-3.88-2.99,2.48-5.98,3.88-9.36,3.88-5.86,0-9.29-3.5-9.29-8.72s3.69-8.47,10.76-10.06l6.75-1.53v-.76c0-3.95-1.78-5.35-4.52-5.35s-5.47,1.27-8.72,3.25l-2.48-5.09c4.27-2.67,8.79-4.2,12.8-4.2,6.43,0,11.08,3.69,11.08,10.19v12.86c0,2.67,.51,3.88,1.91,3.88,.45,0,1.02-.19,1.85-.57l1.34,4.39Zm-13.24-13.75c-7.32,1.72-9.49,3.18-9.49,6.3,0,2.23,1.59,3.5,3.57,3.5,1.78,0,4.2-1.08,6.11-2.86-.13-1.85-.19-4.71-.19-6.94Z"/></g><line class="d" x1="218.76" y1="74.77" x2="509.79" y2="74.77"/></g></g></g></g></svg>