<?xml version="1.0" encoding="UTF-8"?><svg xmlns="http://www.w3.org/2000/svg" viewBox="0 0 471.82 490.02"><defs><style>.d{fill:#fff;}.e{fill:#171717;}</style></defs><g id="a"/><g id="b"><g id="c"><g><path class="d" d="M470.91,295.04c-.06-.13-.17-.24-.25-.37-2.43-3.74-4.74-7.56-7.32-11.2-2.66-3.75-4.43-7.56-2.55-12.2,.11-.27,.1-.59,.13-.89,.81-9.33,1.78-18.64,2.38-27.99,.73-11.49,.14-22.9-3.43-33.97-1.39-4.31-3.54-8.19-7.3-10.97-5.73-4.25-16.17-3.33-18.76,5.23-.79,2.6-1.42,5.34-1.5,8.03-.29,10.17,2.18,19.92,5.14,29.52,3.85,12.52,8.63,24.68,14.59,36.37,.39,.78,.49,1.88,.32,2.76-.79,4.15-1.72,8.28-2.61,12.41-2.64,12.22-6.1,24.18-10.77,35.78-3.4,8.44-7.24,16.67-13.47,23.48-2.64,2.89-5.73,5.37-9.92,4.12-2.49-.74-4.9-2.17-7.02-3.74-6.34-4.68-10.78-11.02-14.7-17.74-.53-.92-.82-2.1-.86-3.17-.24-8.4-.25-16.81-.62-25.21-.45-10.02-.99-20.05-1.85-30.05-.96-11.19-2.17-22.36-3.53-33.5-1.34-11-2.81-21.99-4.58-32.92-1.66-10.18-3.77-20.29-5.71-30.42-2.39-12.49-5.27-24.86-9.65-36.8-1.51-4.14-3.67-8.13-6.09-11.81-2.15-3.27-5.8-2.74-7.72,.67-.33,.58-.6,1.2-.84,1.82-2.18,5.49-2.56,11.33-2.73,17.1-.5,17.56-.23,35.11,1.73,52.58,1.05,9.38,2.09,18.78,3.62,28.09,1.63,9.89,3.62,19.73,5.83,29.51,2.33,10.27,4.81,20.53,7.77,30.64,4.35,14.84,9.62,29.36,16.98,43.04,.39,.74,.52,1.72,.48,2.58-.61,11.43-1.06,22.88-1.97,34.29-1.16,14.52-4.25,28.65-9.64,42.23-2.08,5.25-4.36,10.44-8.11,14.79-2.81,3.27-5.65,3.52-8.5,.38-2.03-2.24-3.88-4.74-5.3-7.4-6.42-12-10.07-25.03-13.53-38.1-2.03-7.68-3.82-15.43-5.49-23.2-2.42-11.26-4.79-22.54-6.87-33.86-2.05-11.19-3.75-22.43-5.54-33.66-1.7-10.65-3.45-21.29-4.95-31.97-2.1-15.02-4.09-30.06-5.96-45.11-1.67-13.44-3.12-26.9-4.66-40.35-1.33-11.67-2.74-23.34-3.92-35.04-1.64-16.28-3.15-32.57-4.61-48.87-1.3-14.37-2.51-28.75-3.66-43.13-.53-6.67-.87-13.35-1.19-20.03-.07-1.6-.67-2.2-2.22-2.4-4-.5-4.94,.36-4.65,4.47,.92,12.92,1.74,25.84,2.76,38.74,.93,11.79,2.05,23.57,3.11,35.35,.72,8,1.43,16,2.25,23.99,1.25,12.06,2.57,24.11,3.9,36.16,1.21,10.87,2.44,21.73,3.72,32.59,1.18,10.05,2.39,20.09,3.67,30.13,1.1,8.71,2.25,17.41,3.47,26.1,1.18,8.39,2.42,16.78,3.7,25.16,1.53,9.99,3.04,19.99,4.7,29.96,1.44,8.65,2.99,17.29,4.65,25.9,2.12,11.02,4.2,22.05,6.66,32.99,2,8.91,4.49,17.7,6.86,26.52,2.69,9.99,6.01,19.76,10.62,29.05,2.49,5.02,5.35,9.79,9.97,13.24,2.48,1.84,5.2,2.5,8.2,1.96,5.24-.95,8.39-4.7,10.94-8.85,7.82-12.72,12.02-26.85,14.33-41.42,1.84-11.58,2.43-23.35,3.59-35.03,.17-1.72,.37-3.44,.62-5.8,1.01,1.08,1.63,1.66,2.15,2.32,3.61,4.6,7.81,8.53,12.83,11.6,6.8,4.14,12.91,3.91,19.24-.93,4.71-3.6,8.04-8.36,10.89-13.43,9.33-16.63,14.54-34.72,18.69-53.18,.3-1.32,.68-2.63,1.18-4.57,1.24,1.82,1.97,3.11,2.9,4.22,1.96,2.33,3.87,4.74,6.13,6.74,.89,.79,3.07,1.21,3.96,.66,1.48-.9,.6-2.64-.11-3.99Zm-85.39,21.15c-8.07-18.51-13.46-37.79-17.87-57.38-4.42-19.66-7.86-39.51-9.64-59.59-1.77-20.02-2.48-40.08-.52-60.12,.41-.04,.82-.09,1.22-.14,1.41,3.96,3.06,7.84,4.19,11.87,2.19,7.87,4.45,15.75,6.05,23.74,2.81,14.05,5.34,28.17,7.63,42.31,1.88,11.59,3.43,23.24,4.79,34.9,1.22,10.49,2.12,21.02,2.89,31.54,.75,10.16,1.16,20.34,1.69,30.5,.04,.78-.09,1.56-.43,2.37Zm71.06-77.07c-.37,7.86-1.11,15.7-1.71,23.55-.04,.6-.24,1.19-.37,1.78-.2,.03-.4,.05-.59,.07-1.47-3.6-3.11-7.14-4.36-10.81-2.76-8.07-5.67-16.12-7.82-24.36-1.48-5.71-1.92-11.7-2.55-17.6-.19-1.85,.36-3.84,.85-5.69,1.08-4.04,4.91-5.36,8.41-3.03,2.91,1.95,4.22,4.99,5.18,8.1,2.8,9.12,3.41,18.53,2.96,27.99ZM183.13,24.44c-1.71,.1-3.74-.45-3.85,2.39-.16,4.01-.48,8.01-.74,12.02-.5,7.78-.91,15.57-1.53,23.35-.77,9.48-1.74,18.94-2.6,28.42-.62,6.88-1.17,13.77-1.82,20.66-.76,8.06-1.57,16.13-2.39,24.19-.59,5.76-1.23,11.53-1.87,17.29-.76,6.94-1.56,13.87-2.32,20.81-.58,5.32-1.09,10.64-1.7,15.95-.81,7.01-1.67,14.02-2.53,21.02-.82,6.64-1.61,13.28-2.49,19.91-1.18,8.76-2.45,17.5-3.66,26.26-.83,5.95-1.54,11.92-2.47,17.86-1.53,9.83-3.17,19.64-4.79,29.46-1.47,8.86-2.77,17.76-4.54,26.57-2.86,14.26-5.92,28.49-9.11,42.68-2.9,12.91-6.59,25.6-11.49,37.91-2.28,5.74-4.76,11.41-9.06,16.02-3.52,3.79-6.86,3.73-9.71-.59-2.64-4.01-5.12-8.21-7.01-12.6-5.69-13.19-8.66-27.14-10.22-41.35-1.12-10.18-1.53-20.45-2.21-30.68-.3-4.57-.1-9.02,2.74-12.99,1.06-1.49,1.75-3.28,2.4-5.01,4.09-10.91,8.34-21.76,12.08-32.78,2.31-6.8,3.91-13.85,5.64-20.84,1.58-6.4,2.96-12.86,4.3-19.31,1.37-6.61,2.72-13.23,3.83-19.88,1.05-6.22,1.89-12.48,2.61-18.75,.97-8.41,2.21-16.82,2.49-25.26,.45-13.3,.38-26.63,.13-39.93-.09-4.77-1.17-9.56-2.2-14.24-.47-2.15-1.51-4.53-4.21-4.98-2.73-.45-4.3,1.36-5.48,3.42-1.37,2.38-2.86,4.77-3.73,7.34-2.32,6.88-4.57,13.8-6.4,20.83-2.27,8.76-4.24,17.6-6.06,26.47-1.4,6.75-2.38,13.59-3.51,20.4-1.29,7.83-2.69,15.66-3.79,23.52-1.01,7.21-1.79,14.45-2.49,21.69-1.32,13.68-2.79,27.36-3.68,41.07-.76,11.79-.88,23.62-1.12,35.44-.06,2.84-.38,5.38-2.2,7.7-1.73,2.22-3.1,4.73-4.8,6.98-3.64,4.78-7.85,8.96-13.34,11.6-3.6,1.74-7.2,1.78-10.09-1.25-2.85-2.99-5.89-6.01-7.86-9.57-3.57-6.4-6.86-13.03-9.42-19.89-3.01-8.04-5.24-16.39-7.58-24.67-1.47-5.21-2.68-10.5-3.68-15.82-.44-2.37-1.39-4.75-.18-7.37,3.29-7.13,6.51-14.31,9.4-21.61,4.59-11.57,8.22-23.44,9.81-35.83,.64-4.95,.89-9.97-.75-14.81-1.41-4.13-3.76-7.38-8.51-8.16-6.57-1.08-12.33,1.9-15.47,8-3.33,6.46-5.01,13.41-5.23,20.56-.3,10.03-.36,20.09,.11,30.1,.33,6.8,1.84,13.54,2.6,20.32,.19,1.66-.06,3.65-.86,5.06-2.24,3.95-4.9,7.64-7.32,11.48-1.1,1.76-2.14,3.57-3.01,5.45-.29,.62-.25,1.78,.15,2.22,.41,.45,1.5,.55,2.21,.39,.82-.18,1.73-.64,2.29-1.25,2.05-2.25,4-4.59,5.93-6.94,.85-1.05,1.58-2.2,2.36-3.31,.2,.04,.4,.08,.6,.12,.78,3.44,1.5,6.9,2.35,10.32,2.96,11.97,6.46,23.77,11.38,35.09,3.68,8.48,7.85,16.67,14.52,23.35,6.07,6.07,12.69,7.27,20.27,3.36,5.68-2.94,10.02-7.38,13.96-12.29,.58-.72,1.2-1.4,1.8-2.1,.25,.08,.5,.17,.76,.25,.16,2.55,.24,5.1,.49,7.64,1.02,10.35,1.83,20.72,3.21,31.02,1.78,13.33,5.74,26.09,11.62,38.21,2.25,4.64,4.89,9.04,9.29,12.06,3.38,2.33,6.93,2.89,10.7,1.06,3.76-1.83,6.22-4.97,8.43-8.37,4.45-6.84,7.37-14.4,10.01-22.05,2.01-5.81,3.77-11.72,5.39-17.65,1.68-6.16,3.13-12.38,4.55-18.6,1.71-7.45,3.35-14.92,4.9-22.41,1.33-6.39,2.53-12.82,3.71-19.24,1.26-6.87,2.46-13.75,3.62-20.64,.86-5.12,1.63-10.27,2.42-15.41,.95-6.16,1.9-12.32,2.81-18.49,.86-5.81,1.65-11.62,2.49-17.43,.87-6.01,1.83-12.01,2.62-18.03,.89-6.77,1.59-13.57,2.44-20.35,1.22-9.72,2.58-19.43,3.73-29.16,1.47-12.4,2.85-24.81,4.14-37.23,1.21-11.59,2.28-23.2,3.39-34.81,1.04-10.95,2.11-21.89,3.06-32.84,1.08-12.44,2.1-24.88,3.04-37.33,.48-6.22,.72-12.46,1.08-18.69,.12-2.02-1-2.61-2.78-2.5ZM85.35,308.86c.16-4.23,.34-8.46,.67-12.67,.9-11.34,1.83-22.67,2.86-33.99,.65-7.18,1.41-14.34,2.29-21.49,.82-6.56,1.84-13.09,2.83-19.62,1.05-6.98,2.1-13.95,3.31-20.9,1.13-6.5,2.37-12.99,3.72-19.46,1.47-6.96,2.89-13.95,4.77-20.81,1.86-6.79,4.24-13.43,6.43-20.12,.15-.45,.58-.81,.87-1.21,.32,0,.63,.01,.95,.02,.32,4.18,.89,8.36,.9,12.54,.04,11.69,.16,23.39-.38,35.05-.41,9.03-1.71,18.03-2.73,27.03-.66,5.75-1.36,11.5-2.34,17.21-1.36,7.89-2.78,15.79-4.56,23.61-2.43,10.63-4.85,21.29-7.95,31.74-3,10.09-6.86,19.93-10.37,29.87-.19,.55-.68,.99-1.29,1.86,0-3.26-.08-5.96,.02-8.66Zm-68.56-44.05c-.17-.52-.43-1.03-.49-1.56-.44-4.44-.96-8.87-1.23-13.32-.32-5.41-.82-10.85-.53-16.24,.46-8.94,.43-18.04,4.61-26.34,1.26-2.51,2.91-4.64,5.9-5.33,3.14-.71,5.45,.62,6.5,3.77,1.33,4,1.15,8.09,.57,12.14-1.93,13.6-6.32,26.5-11.43,39.18-1.04,2.59-2.12,5.16-3.19,7.74-.23-.01-.47-.03-.71-.04ZM234.79,0c-1.45-.01-2.07,.31-2.05,2.01,.09,10.56,.05,21.13,.05,31.7V485.62c0,.9-.11,1.8-.02,2.68,.05,.43,.33,1.04,.68,1.22,2.84,1.4,5.54-.27,5.54-3.36,0-160.69,.01-321.37,0-482.06C238.99-.29,239.97,.05,234.79,0Z"/><path class="e" d="M470.91,295.04c-.06-.13-.17-.24-.25-.37-2.43-3.74-4.74-7.56-7.32-11.2-2.66-3.75-4.43-7.56-2.55-12.2,.11-.27,.1-.59,.13-.89,.81-9.33,1.78-18.64,2.38-27.99,.73-11.49,.14-22.9-3.43-33.97-1.39-4.31-3.54-8.19-7.3-10.97-5.73-4.25-16.17-3.33-18.76,5.23-.79,2.6-1.42,5.34-1.5,8.03-.29,10.17,2.18,19.92,5.14,29.52,3.85,12.52,8.63,24.68,14.59,36.37,.39,.78,.49,1.88,.32,2.76-.79,4.15-1.72,8.28-2.61,12.41-2.64,12.22-6.1,24.18-10.77,35.78-3.4,8.44-7.24,16.67-13.47,23.48-2.64,2.89-5.73,5.37-9.92,4.12-2.49-.74-4.9-2.17-7.02-3.74-6.34-4.68-10.78-11.02-14.7-17.74-.53-.92-.82-2.1-.86-3.17-.24-8.4-.25-16.81-.62-25.21-.45-10.02-.99-20.05-1.85-30.05-.96-11.19-2.17-22.36-3.53-33.5-1.34-11-2.81-21.99-4.58-32.92-1.66-10.18-3.77-20.29-5.71-30.42-2.39-12.49-5.27-24.86-9.65-36.8-1.51-4.14-3.67-8.13-6.09-11.81-2.15-3.27-5.8-2.74-7.72,.67-.33,.58-.6,1.2-.84,1.82-2.18,5.49-2.56,11.33-2.73,17.1-.5,17.56-.23,35.11,1.73,52.58,1.05,9.38,2.09,18.78,3.62,28.09,1.63,9.89,3.62,19.73,5.83,29.51,2.33,10.27,4.81,20.53,7.77,30.64,4.35,14.84,9.62,29.36,16.98,43.04,.39,.74,.52,1.72,.48,2.58-.61,11.43-1.06,22.88-1.97,34.29-1.16,14.52-4.25,28.65-9.64,42.23-2.08,5.25-4.36,10.44-8.11,14.79-2.81,3.27-5.65,3.52-8.5,.38-2.03-2.24-3.88-4.74-5.3-7.4-6.42-12-10.07-25.03-13.53-38.1-2.03-7.68-3.82-15.43-5.49-23.2-2.42-11.26-4.79-22.54-6.87-33.86-2.05-11.19-3.75-22.43-5.54-33.66-1.7-10.65-3.45-21.29-4.95-31.97-2.1-15.02-4.09-30.06-5.96-45.11-1.67-13.44-3.12-26.9-4.66-40.35-1.33-11.67-2.74-23.34-3.92-35.04-1.64-16.28-3.15-32.57-4.61-48.87-1.3-14.37-2.51-28.75-3.66-43.13-.53-6.67-.87-13.35-1.19-20.03-.07-1.6-.67-2.2-2.22-2.4-4-.5-4.94,.36-4.65,4.47,.92,12.92,1.74,25.84,2.76,38.74,.93,11.79,2.05,23.57,3.11,35.35,.72,8,1.43,16,2.25,23.99,1.25,12.06,2.57,24.11,3.9,36.16,1.21,10.87,2.44,21.73,3.72,32.59,1.18,10.05,2.39,20.09,3.67,30.13,1.1,8.71,2.25,17.41,3.47,26.1,1.18,8.39,2.42,16.78,3.7,25.16,1.53,9.99,3.04,19.99,4.7,29.96,1.44,8.65,2.99,17.29,4.65,25.9,2.12,11.02,4.2,22.05,6.66,32.99,2,8.91,4.49,17.7,6.86,26.52,2.69,9.99,6.01,19.76,10.62,29.05,2.49,5.02,5.35,9.79,9.97,13.24,2.48,1.84,5.2,2.5,8.2,1.96,5.24-.95,8.39-4.7,10.94-8.85,7.82-12.72,12.02-26.85,14.33-41.42,1.84-11.58,2.43-23.35,3.59-35.03,.17-1.72,.37-3.44,.62-5.8,1.01,1.08,1.63,1.66,2.15,2.32,3.61,4.6,7.81,8.53,12.83,11.6,6.8,4.14,12.91,3.91,19.24-.93,4.71-3.6,8.04-8.36,10.89-13.43,9.33-16.63,14.54-34.72,18.69-53.18,.3-1.32,.68-2.63,1.18-4.57,1.24,1.82,1.97,3.11,2.9,4.22,1.96,2.33,3.87,4.74,6.13,6.74,.89,.79,3.07,1.21,3.96,.66,1.48-.9,.6-2.64-.11-3.99Zm-85.39,21.15c-8.07-18.51-13.46-37.79-17.87-57.38-4.42-19.66-7.86-39.51-9.64-59.59-1.77-20.02-2.48-40.08-.52-60.12,.41-.04,.82-.09,1.22-.14,1.41,3.96,3.06,7.84,4.19,11.87,2.19,7.87,4.45,15.75,6.05,23.74,2.81,14.05,5.34,28.17,7.63,42.31,1.88,11.59,3.43,23.24,4.79,34.9,1.22,10.49,2.12,21.02,2.89,31.54,.75,10.16,1.16,20.34,1.69,30.5,.04,.78-.09,1.56-.43,2.37Zm71.06-77.07c-.37,7.86-1.11,15.7-1.71,23.55-.04,.6-.24,1.19-.37,1.78-.2,.03-.4,.05-.59,.07-1.47-3.6-3.11-7.14-4.36-10.81-2.76-8.07-5.67-16.12-7.82-24.36-1.48-5.71-1.92-11.7-2.55-17.6-.19-1.85,.36-3.84,.85-5.69,1.08-4.04,4.91-5.36,8.41-3.03,2.91,1.95,4.22,4.99,5.18,8.1,2.8,9.12,3.41,18.53,2.96,27.99Z"/><path class="e" d="M183.13,24.44c-1.71,.1-3.74-.45-3.85,2.39-.16,4.01-.48,8.01-.74,12.02-.5,7.78-.91,15.57-1.53,23.35-.77,9.48-1.74,18.94-2.6,28.42-.62,6.88-1.17,13.77-1.82,20.66-.76,8.06-1.57,16.13-2.39,24.19-.59,5.76-1.23,11.53-1.87,17.29-.76,6.94-1.56,13.87-2.32,20.81-.58,5.32-1.09,10.64-1.7,15.95-.81,7.01-1.67,14.02-2.53,21.02-.82,6.64-1.61,13.28-2.49,19.91-1.18,8.76-2.45,17.5-3.66,26.26-.83,5.95-1.54,11.92-2.47,17.86-1.53,9.83-3.17,19.64-4.79,29.46-1.47,8.86-2.77,17.76-4.54,26.57-2.86,14.26-5.92,28.49-9.11,42.68-2.9,12.91-6.59,25.6-11.49,37.91-2.28,5.74-4.76,11.41-9.06,16.02-3.52,3.79-6.86,3.73-9.71-.59-2.64-4.01-5.12-8.21-7.01-12.6-5.69-13.19-8.66-27.14-10.22-41.35-1.12-10.18-1.53-20.45-2.21-30.68-.3-4.57-.1-9.02,2.74-12.99,1.06-1.49,1.75-3.28,2.4-5.01,4.09-10.91,8.34-21.76,12.08-32.78,2.31-6.8,3.91-13.85,5.64-20.84,1.58-6.4,2.96-12.86,4.3-19.31,1.37-6.61,2.72-13.23,3.83-19.88,1.05-6.22,1.89-12.48,2.61-18.75,.97-8.41,2.21-16.82,2.49-25.26,.45-13.3,.38-26.63,.13-39.93-.09-4.77-1.17-9.56-2.2-14.24-.47-2.15-1.51-4.53-4.21-4.98-2.73-.45-4.3,1.36-5.48,3.42-1.37,2.38-2.86,4.77-3.73,7.34-2.32,6.88-4.57,13.8-6.4,20.83-2.27,8.76-4.24,17.6-6.06,26.47-1.4,6.75-2.38,13.59-3.51,20.4-1.29,7.83-2.69,15.66-3.79,23.52-1.01,7.21-1.79,14.45-2.49,21.69-1.32,13.68-2.79,27.36-3.68,41.07-.76,11.79-.88,23.62-1.12,35.44-.06,2.84-.38,5.38-2.2,7.7-1.73,2.22-3.1,4.73-4.8,6.98-3.64,4.78-7.85,8.96-13.34,11.6-3.6,1.74-7.2,1.78-10.09-1.25-2.85-2.99-5.89-6.01-7.86-9.57-3.57-6.4-6.86-13.03-9.42-19.89-3.01-8.04-5.24-16.39-7.58-24.67-1.47-5.21-2.68-10.5-3.68-15.82-.44-2.37-1.39-4.75-.18-7.37,3.29-7.13,6.51-14.31,9.4-21.61,4.59-11.57,8.22-23.44,9.81-35.83,.64-4.95,.89-9.97-.75-14.81-1.41-4.13-3.76-7.38-8.51-8.16-6.57-1.08-12.33,1.9-15.47,8-3.33,6.46-5.01,13.41-5.23,20.56-.3,10.03-.36,20.09,.11,30.1,.33,6.8,1.84,13.54,2.6,20.32,.19,1.66-.06,3.65-.86,5.06-2.24,3.95-4.9,7.64-7.32,11.48-1.1,1.76-2.14,3.57-3.01,5.45-.29,.62-.25,1.78,.15,2.22,.41,.45,1.5,.55,2.21,.39,.82-.18,1.73-.64,2.29-1.25,2.05-2.25,4-4.59,5.93-6.94,.85-1.05,1.58-2.2,2.36-3.31,.2,.04,.4,.08,.6,.12,.78,3.44,1.5,6.9,2.35,10.32,2.96,11.97,6.46,23.77,11.38,35.09,3.68,8.48,7.85,16.67,14.52,23.35,6.07,6.07,12.69,7.27,20.27,3.36,5.68-2.94,10.02-7.38,13.96-12.29,.58-.72,1.2-1.4,1.8-2.1,.25,.08,.5,.17,.76,.25,.16,2.55,.24,5.1,.49,7.64,1.02,10.35,1.83,20.72,3.21,31.02,1.78,13.33,5.74,26.09,11.62,38.21,2.25,4.64,4.89,9.04,9.29,12.06,3.38,2.33,6.93,2.89,10.7,1.06,3.76-1.83,6.22-4.97,8.43-8.37,4.45-6.84,7.37-14.4,10.01-22.05,2.01-5.81,3.77-11.72,5.39-17.65,1.68-6.16,3.13-12.38,4.55-18.6,1.71-7.45,3.35-14.92,4.9-22.41,1.33-6.39,2.53-12.82,3.71-19.24,1.26-6.87,2.46-13.75,3.62-20.64,.86-5.12,1.63-10.27,2.42-15.41,.95-6.16,1.9-12.32,2.81-18.49,.86-5.81,1.65-11.62,2.49-17.43,.87-6.01,1.83-12.01,2.62-18.03,.89-6.77,1.59-13.57,2.44-20.35,1.22-9.72,2.58-19.43,3.73-29.16,1.47-12.4,2.85-24.81,4.14-37.23,1.21-11.59,2.28-23.2,3.39-34.81,1.04-10.95,2.11-21.89,3.06-32.84,1.08-12.44,2.1-24.88,3.04-37.33,.48-6.22,.72-12.46,1.08-18.69,.12-2.02-1-2.61-2.78-2.5ZM85.35,308.86c.16-4.23,.34-8.46,.67-12.67,.9-11.34,1.83-22.67,2.86-33.99,.65-7.18,1.41-14.34,2.29-21.49,.82-6.56,1.84-13.09,2.83-19.62,1.05-6.98,2.1-13.95,3.31-20.9,1.13-6.5,2.37-12.99,3.72-19.46,1.47-6.96,2.89-13.95,4.77-20.81,1.86-6.79,4.24-13.43,6.43-20.12,.15-.45,.58-.81,.87-1.21,.32,0,.63,.01,.95,.02,.32,4.18,.89,8.36,.9,12.54,.04,11.69,.16,23.39-.38,35.05-.41,9.03-1.71,18.03-2.73,27.03-.66,5.75-1.36,11.5-2.34,17.21-1.36,7.89-2.78,15.79-4.56,23.61-2.43,10.63-4.85,21.29-7.95,31.74-3,10.09-6.86,19.93-10.37,29.87-.19,.55-.68,.99-1.29,1.86,0-3.26-.08-5.96,.02-8.66Zm-68.56-44.05c-.17-.52-.43-1.03-.49-1.56-.44-4.44-.96-8.87-1.23-13.32-.32-5.41-.82-10.85-.53-16.24,.46-8.94,.43-18.04,4.61-26.34,1.26-2.51,2.91-4.64,5.9-5.33,3.14-.71,5.45,.62,6.5,3.77,1.33,4,1.15,8.09,.57,12.14-1.93,13.6-6.32,26.5-11.43,39.18-1.04,2.59-2.12,5.16-3.19,7.74-.23-.01-.47-.03-.71-.04Z"/><path class="e" d="M232.79,244.93c0-70.41,0-140.81,0-211.22,0-10.57,.04-21.14-.06-31.7-.02-1.7,.6-2.02,2.06-2,5.17,.05,4.19-.29,4.19,4.1,.01,160.69,0,321.37,0,482.06,0,3.09-2.7,4.76-5.54,3.36-.35-.17-.63-.78-.68-1.22-.09-.88,.02-1.78,.02-2.67,0-80.23,0-160.46,0-240.69Z"/></g></g></g></svg>